<?xml version="1.0" encoding="UTF-8"?>
<svg version="1.1" viewBox="0 0 1320 1000" width="1320" height="1000" xmlns="http://www.w3.org/2000/svg">
<path transform="translate(0)" d="m0 0h1320v1e3h-1320z" fill="#111"/>
<path transform="translate(621,439)" d="m0 0h14l10 19 11 23 16 33 12 25 8-16 18-37 22-46 1-1h14v121h-15l-1-85-13 27-11 23-16 34-1 1h-12l-8-16-20-41-13-28-1 85h-15z" fill="#FEFED5"/>
<path transform="translate(1056,439)" d="m0 0h12l7 15 19 42 28 63v1h-16l-11-26v-2h-66l-1 5-10 23h-16l10-23 20-45 18-40z" fill="#FEFED5"/>
<path transform="translate(336,439)" d="m0 0h12l18 40 16 36 18 40 1 5h-15l-12-27-65-1-3 9-8 18-1 1h-15l5-13 19-42 12-27 17-38z" fill="#FEFED5"/>
<path transform="translate(510,439)" d="m0 0h14l1 41v13l61 1v-55h14v121h-14v-53l-61 1-1 52h-14z" fill="#FEFED5"/>
<path transform="translate(898,439)" d="m0 0h14l1 54 61 1v-55h14v121h-14v-53l-61 1-1 52h-14z" fill="#FEFED5"/>
<path transform="translate(448,437)" d="m0 0h8l10 2 10 5 8 7 6 10-1 3-8 4-3-1-4-6-8-7-9-3h-9l-9 3-5 4-3 7v7l4 8 8 6 20 8 16 8 8 7 5 8 2 9v7l-3 10-6 8-8 6-12 5-16 1-10-2-14-7-9-9-5-11 3-3 9-3 6 10 8 7 7 3 12 1 9-2 8-5 4-6 1-3v-7l-4-10-9-6-14-6-16-7-9-6-7-8-3-8v-14l5-10 7-7 10-5z" fill="#FEFED5"/>
<path transform="translate(799,439)" d="m0 0h82v14h-34v107h-14v-107h-34z" fill="#FEFED5"/>
<path transform="translate(254,439)" d="m0 0h14v89l-3 12-4 8-5 6-10 6-7 2h-17l-12-4-10-9-2-4 8-9h2l6 7 9 4h15l6-3 5-6 3-8 1-8z" fill="#FEFED5"/>
<path transform="translate(768,439)" d="m0 0h14v121h-14z" fill="#FEFED5"/>
<path transform="translate(1061,459)" d="m0 0h2l18 41 8 19h-53l1-5 19-43z" fill="#111"/>
<path transform="translate(341,459)" d="m0 0 3 3 18 41 6 14v2h-53l7-17 18-41z" fill="#111"/>
</svg>
